<svg id="visual" viewBox="0 0 960 300" width="960" height="300" xmlns="http://www.w3.org/2000/svg" xmlns:xlink="http://www.w3.org/1999/xlink" version="1.1"><rect x="0" y="0" width="960" height="300" fill="#ff0066"></rect><path d="M0 160L20 159.7C40 159.3 80 158.7 120 161.7C160 164.7 200 171.3 240 178.8C280 186.3 320 194.7 360 189.8C400 185 440 167 480 168C520 169 560 189 600 195.7C640 202.3 680 195.7 720 189.7C760 183.7 800 178.3 840 173C880 167.7 920 162.3 940 159.7L960 157L960 301L940 301C920 301 880 301 840 301C800 301 760 301 720 301C680 301 640 301 600 301C560 301 520 301 480 301C440 301 400 301 360 301C320 301 280 301 240 301C200 301 160 301 120 301C80 301 40 301 20 301L0 301Z" fill="#fa7268"></path><path d="M0 271L20 263.7C40 256.3 80 241.7 120 233.2C160 224.7 200 222.3 240 229.3C280 236.3 320 252.7 360 258.3C400 264 440 259 480 250.5C520 242 560 230 600 227.2C640 224.3 680 230.7 720 235C760 239.3 800 241.7 840 237C880 232.3 920 220.7 940 214.8L960 209L960 301L940 301C920 301 880 301 840 301C800 301 760 301 720 301C680 301 640 301 600 301C560 301 520 301 480 301C440 301 400 301 360 301C320 301 280 301 240 301C200 301 160 301 120 301C80 301 40 301 20 301L0 301Z" fill="#c62368"></path></svg>